<svg version="1.1" id="Layer_1" xmlns="http://www.w3.org/2000/svg" xmlns:xlink="http://www.w3.org/1999/xlink" x="0px" y="0px"
	 width="100%" viewBox="0 0 259 194" enable-background="new 0 0 259 194" xml:space="preserve">
<path fill="#000000" opacity="1.000000" stroke="none" 
	d="
M151.000000,195.000000 
	C100.666672,195.000000 50.833340,195.000000 1.000007,195.000000 
	C1.000005,130.333344 1.000005,65.666679 1.000002,1.000015 
	C87.333321,1.000010 173.666641,1.000010 260.000000,1.000005 
	C260.000000,65.666649 260.000000,130.333298 260.000000,194.999969 
	C223.833328,195.000000 187.666672,195.000000 151.000000,195.000000 
M133.695496,88.259933 
	C133.475342,88.440536 133.412720,88.665054 133.247284,89.612335 
	C133.197174,90.094124 133.147064,90.575905 132.642776,91.690498 
	C132.350128,97.812057 131.940430,103.930901 131.798264,110.055954 
	C131.660248,116.002357 131.796844,121.955132 131.215454,127.846687 
	C130.598190,127.147804 129.458969,126.459442 129.444656,125.748413 
	C129.305939,118.859406 129.516388,111.961479 129.296494,105.076660 
	C129.146423,100.377914 128.470627,95.695953 127.922096,90.318176 
	C127.290421,88.906311 126.658737,87.494453 126.056168,85.976418 
	C126.056168,85.976418 125.950722,85.944771 125.964851,85.253525 
	C125.291855,83.833679 124.618851,82.413841 123.822975,80.302231 
	C120.233521,73.565681 115.870644,67.487305 109.125397,62.745026 
	C109.125397,74.483315 109.125397,85.702316 108.978378,97.624924 
	C107.960564,104.369751 109.404427,110.044449 115.604347,113.934677 
	C117.069740,114.854149 118.063965,116.524529 119.451485,118.499962 
	C121.555847,122.033676 123.730537,125.527901 125.743835,129.112762 
	C127.583893,132.389145 129.485611,133.364471 132.358170,130.039948 
	C133.007950,129.758270 133.921783,129.660385 134.265945,129.165970 
	C137.156921,125.012985 139.943481,120.787315 143.231293,116.161453 
	C145.238037,114.190674 147.383743,112.338432 149.201935,110.206818 
	C150.385315,108.819420 151.821686,107.052963 151.883606,105.408829 
	C152.126129,98.966972 151.867462,92.506241 151.606323,85.271370 
	C151.546295,83.196060 151.444473,81.120941 151.434479,79.045395 
	C151.409515,73.860809 151.426254,68.676025 151.426254,62.880657 
	C145.092865,68.180496 139.874985,73.709465 136.449219,81.529152 
	C135.653397,83.685211 134.857574,85.841270 133.996735,88.020988 
	C133.996735,88.020988 134.023911,88.084618 133.695496,88.259933 
M158.387512,122.015259 
	C157.446152,122.496689 156.504791,122.978119 154.930878,123.752747 
	C152.480392,125.394478 150.029907,127.036209 147.579422,128.677948 
	C147.901718,129.052124 148.224014,129.426300 148.546310,129.800476 
	C155.496521,127.983131 162.446747,126.165787 169.847107,124.230736 
	C169.847107,110.225220 169.847107,96.097664 169.750198,81.263008 
	C168.723770,79.893829 168.088593,77.323349 165.086624,80.476135 
	C165.096146,91.649612 165.105667,102.823097 165.015930,114.826775 
	C164.518082,117.144188 166.523331,120.707176 161.767487,120.742332 
	C161.429672,120.599945 161.185440,120.700798 160.468948,121.121147 
	C159.989761,121.401306 159.510590,121.681465 158.387512,122.015259 
M160.929230,87.894417 
	C160.929230,82.296555 160.929230,76.698685 160.929230,70.800980 
	C157.629059,71.362778 155.949844,72.614357 156.053726,76.020302 
	C156.295380,83.942207 156.279526,91.871971 156.263702,100.722565 
	C156.573318,106.068405 156.517273,110.922417 150.999130,114.433266 
	C147.954102,116.370613 146.095139,120.172119 143.701477,123.133232 
	C144.015778,123.512703 144.330063,123.892174 144.644348,124.271645 
	C149.849808,121.683426 155.087097,119.154968 160.215393,116.421936 
	C160.777710,116.122253 160.911591,114.646675 160.907913,113.717827 
	C160.885529,108.094170 160.765396,102.470901 160.756012,95.978645 
	C160.741821,93.579041 160.727631,91.179428 160.929230,87.894417 
M104.888725,94.263855 
	C104.817642,93.515686 104.746559,92.767509 104.792015,91.100342 
	C104.755363,87.384605 104.718712,83.668861 104.843002,79.506737 
	C104.843002,79.506737 104.688354,79.058144 104.819847,78.236641 
	C104.959724,74.816833 105.504387,71.129387 100.155502,71.114532 
	C100.155502,75.907417 100.155502,80.524658 99.989723,86.048141 
	C99.997887,95.021790 99.933334,103.996712 100.090675,112.967743 
	C100.114952,114.352478 100.767265,116.366814 101.794762,116.986763 
	C107.409264,120.374290 113.231728,123.417137 119.317062,126.762260 
	C118.164825,121.573059 114.630875,118.140800 110.702316,115.420341 
	C106.856430,112.757149 104.456078,109.729088 104.702629,104.314133 
	C104.671494,103.866508 104.640358,103.418877 104.839333,102.356354 
	C104.783264,101.928635 104.727188,101.500923 104.795677,100.210999 
	C104.757500,98.471802 104.719330,96.732605 104.888725,94.263855 
M94.656349,125.052559 
	C101.059799,126.729912 107.463249,128.407272 114.484604,130.246475 
	C109.368660,126.940193 104.848526,123.425613 99.809593,120.979958 
	C96.674179,119.458191 95.815208,117.818382 95.868523,114.614227 
	C96.045471,103.979195 95.837036,93.337425 96.041344,82.703339 
	C96.109016,79.181511 94.928383,77.884819 91.173248,78.498703 
	C91.173248,93.178535 91.126305,107.782394 91.289307,122.383896 
	C91.299141,123.264290 92.981934,124.126015 94.656349,125.052559 
z"/>
<path fill="#03CBE9" opacity="1.000000" stroke="none" 
	d="
M109.125397,96.921326 
	C109.125397,85.702316 109.125397,74.483315 109.125397,62.745026 
	C115.870644,67.487305 120.233521,73.565681 123.732063,80.906044 
	C124.411011,82.988159 125.180870,84.466469 125.950722,85.944771 
	C125.950722,85.944771 126.056168,85.976418 126.007652,86.420967 
	C125.392052,95.054504 117.409340,99.823059 109.125397,96.921326 
z"/>
<path fill="#0AA3D7" opacity="1.000000" stroke="none" 
	d="
M109.051888,97.273125 
	C117.409340,99.823059 125.392052,95.054504 125.993095,86.474052 
	C126.658737,87.494453 127.290421,88.906311 127.925705,91.123314 
	C127.457039,97.677383 127.728928,103.629616 126.234581,109.099312 
	C125.331940,112.403229 121.687447,114.958061 119.274933,117.849472 
	C118.063965,116.524529 117.069740,114.854149 115.604347,113.934677 
	C109.404427,110.044449 107.960564,104.369751 109.051888,97.273125 
z"/>
<path fill="#EBC825" opacity="1.000000" stroke="none" 
	d="
M94.271309,125.024490 
	C92.981934,124.126015 91.299141,123.264290 91.289307,122.383896 
	C91.126305,107.782394 91.173248,93.178535 91.173248,78.498703 
	C94.928383,77.884819 96.109016,79.181511 96.041344,82.703339 
	C95.837036,93.337425 96.045471,103.979195 95.868523,114.614227 
	C95.815208,117.818382 96.674179,119.458191 99.809593,120.979958 
	C104.848526,123.425613 109.368660,126.940193 114.484604,130.246475 
	C107.463249,128.407272 101.059799,126.729912 94.271309,125.024490 
z"/>
<path fill="#C61050" opacity="1.000000" stroke="none" 
	d="
M136.975067,81.127243 
	C139.874985,73.709465 145.092865,68.180496 151.426254,62.880657 
	C151.426254,68.676025 151.409515,73.860809 151.434479,79.045395 
	C151.444473,81.120941 151.546295,83.196060 151.540146,85.883797 
	C151.313705,87.022507 151.153442,87.548790 150.577576,88.060699 
	C145.736649,86.667488 141.311325,85.288673 136.904297,83.561729 
	C136.940094,82.518150 136.957581,81.822693 136.975067,81.127243 
z"/>
<path fill="#C21069" opacity="1.000000" stroke="none" 
	d="
M136.886002,83.909859 
	C141.311325,85.288673 145.736649,86.667488 150.594757,88.511246 
	C150.774292,93.021645 150.521042,97.067108 149.888077,101.059563 
	C144.318680,99.345322 139.128983,97.684090 133.926117,95.650185 
	C133.640930,93.870903 133.368942,92.464302 133.096954,91.057693 
	C133.147064,90.575905 133.197174,90.094124 133.511932,89.166443 
	C133.930969,88.536575 134.013412,88.324600 134.023911,88.084618 
	C134.023911,88.084618 133.996735,88.020988 134.256836,87.796585 
	C135.306625,86.351418 136.096313,85.130638 136.886002,83.909859 
z"/>
<path fill="#8C1870" opacity="1.000000" stroke="none" 
	d="
M132.869873,91.374100 
	C133.368942,92.464302 133.640930,93.870903 133.921982,96.093811 
	C133.953125,98.734047 133.501022,100.728996 134.085617,102.350090 
	C135.889343,107.351868 135.424896,113.777390 142.197388,116.166885 
	C142.378525,116.314850 142.761459,116.583527 142.761459,116.583527 
	C139.943481,120.787315 137.156921,125.012985 134.265945,129.165970 
	C133.921783,129.660385 133.007950,129.758270 132.123596,129.791931 
	C131.863617,128.997635 131.838226,128.451370 131.812836,127.905113 
	C131.796844,121.955132 131.660248,116.002357 131.798264,110.055954 
	C131.940430,103.930901 132.350128,97.812057 132.869873,91.374100 
z"/>
<path fill="#0B688D" opacity="1.000000" stroke="none" 
	d="
M131.514145,127.875900 
	C131.838226,128.451370 131.863617,128.997635 131.902664,129.625458 
	C129.485611,133.364471 127.583893,132.389145 125.743835,129.112762 
	C123.730537,125.527901 121.555847,122.033676 119.363205,118.174713 
	C121.687447,114.958061 125.331940,112.403229 126.234581,109.099312 
	C127.728928,103.629616 127.457039,97.677383 127.979599,91.467468 
	C128.470627,95.695953 129.146423,100.377914 129.296494,105.076660 
	C129.516388,111.961479 129.305939,118.859406 129.444656,125.748413 
	C129.458969,126.459442 130.598190,127.147804 131.514145,127.875900 
z"/>
<path fill="#D11317" opacity="1.000000" stroke="none" 
	d="
M160.677917,96.847504 
	C160.765396,102.470901 160.885529,108.094170 160.907913,113.717827 
	C160.911591,114.646675 160.777710,116.122253 160.215393,116.421936 
	C155.087097,119.154968 149.849808,121.683426 144.644348,124.271645 
	C144.330063,123.892174 144.015778,123.512703 143.701477,123.133232 
	C146.095139,120.172119 147.954102,116.370613 150.999130,114.433266 
	C156.517273,110.922417 156.573318,106.068405 156.498001,100.089722 
	C157.089661,98.895676 157.447021,98.334480 158.098053,97.687500 
	C159.153763,97.350319 159.915848,97.098907 160.677917,96.847504 
z"/>
<path fill="#7FC032" opacity="1.000000" stroke="none" 
	d="
M104.562202,104.974022 
	C104.456078,109.729088 106.856430,112.757149 110.702316,115.420341 
	C114.630875,118.140800 118.164825,121.573059 119.317062,126.762260 
	C113.231728,123.417137 107.409264,120.374290 101.794762,116.986763 
	C100.767265,116.366814 100.114952,114.352478 100.090675,112.967743 
	C99.933334,103.996712 99.997887,95.021790 100.248810,85.945312 
	C100.656967,91.785988 100.748970,97.732018 101.011719,103.670494 
	C101.055122,104.651558 101.846001,105.599548 102.291443,106.562828 
	C103.048363,106.033226 103.805283,105.503624 104.562202,104.974022 
z"/>
<path fill="#B2DB40" opacity="1.000000" stroke="none" 
	d="
M104.632416,104.644073 
	C103.805283,105.503624 103.048363,106.033226 102.291443,106.562828 
	C101.846001,105.599548 101.055122,104.651558 101.011719,103.670494 
	C100.748970,97.732018 100.656967,91.785988 100.331696,85.492188 
	C100.155502,80.524658 100.155502,75.907417 100.155502,71.114532 
	C105.504387,71.129387 104.959724,74.816833 104.639938,78.732788 
	C104.328049,79.535225 104.402054,79.776627 104.682068,79.953125 
	C104.718712,83.668861 104.755363,87.384605 104.560715,91.773819 
	C104.446663,93.296005 104.563904,94.144707 104.681152,94.993408 
	C104.719330,96.732605 104.757500,98.471802 104.573196,100.793694 
	C104.436890,101.908012 104.523048,102.439629 104.609207,102.971252 
	C104.640358,103.418877 104.671494,103.866508 104.632416,104.644073 
z"/>
<path fill="#B56F36" opacity="1.000000" stroke="none" 
	d="
M169.847107,81.970108 
	C169.847107,96.097664 169.847107,110.225220 169.847107,124.230736 
	C162.446747,126.165787 155.496521,127.983131 148.546310,129.800476 
	C148.224014,129.426300 147.901718,129.052124 147.579422,128.677948 
	C150.029907,127.036209 152.480392,125.394478 155.349091,123.742638 
	C155.767303,123.732529 155.988937,123.990219 156.030411,124.316490 
	C157.048325,124.428146 158.024780,124.213531 159.000610,123.999451 
	C159.000000,124.000000 158.998962,124.001022 159.442001,124.063736 
	C168.395142,124.298172 168.339447,124.300484 167.990387,115.893929 
	C167.853134,112.588348 168.026901,109.269859 168.273361,105.610672 
	C168.612457,103.152664 168.738724,101.041306 168.861694,98.929771 
	C169.190903,93.276588 169.518723,87.623337 169.847107,81.970108 
M153.515503,126.435112 
	C153.515503,126.435112 153.563171,126.521217 153.515503,126.435112 
z"/>
<path fill="#EBC825" opacity="1.000000" stroke="none" 
	d="
M169.798645,81.616562 
	C169.518723,87.623337 169.190903,93.276588 168.861694,98.929771 
	C168.738724,101.041306 168.612457,103.152664 167.929199,105.572174 
	C166.910706,105.862251 166.450684,105.844254 165.992096,105.375473 
	C165.914597,96.603935 165.835678,88.283180 165.756760,79.962433 
	C168.088593,77.323349 168.723770,79.893829 169.798645,81.616562 
z"/>
<path fill="#B56F36" opacity="1.000000" stroke="none" 
	d="
M157.804398,97.773285 
	C157.447021,98.334480 157.089661,98.895676 156.550156,99.627708 
	C156.279526,91.871971 156.295380,83.942207 156.053726,76.020302 
	C155.949844,72.614357 157.629059,71.362778 160.929230,70.800980 
	C160.929230,76.698685 160.929230,82.296555 160.636307,88.000282 
	C160.343384,83.451225 160.343384,78.796303 160.343384,74.141373 
	C159.497055,74.135971 158.650726,74.130562 157.804398,74.125160 
	C157.804398,82.007866 157.804398,89.890579 157.804398,97.773285 
z"/>
<path fill="#F67D18" opacity="1.000000" stroke="none" 
	d="
M165.990692,105.826263 
	C166.450684,105.844254 166.910706,105.862251 167.714874,105.918747 
	C168.026901,109.269859 167.853134,112.588348 167.990387,115.893929 
	C168.339447,124.300484 168.395142,124.298172 159.416809,123.724197 
	C158.976181,122.868492 159.003799,122.415062 159.031403,121.961624 
	C159.510590,121.681465 159.989761,121.401306 160.848877,121.183899 
	C161.228821,121.246643 161.638336,121.252556 161.638336,121.252556 
	C161.638336,121.252556 161.946594,120.994881 161.946594,120.994881 
	C166.523331,120.707176 164.518082,117.144188 165.257935,114.068771 
	C165.663513,110.815926 165.827103,108.321098 165.990692,105.826263 
z"/>
<path fill="#F67D18" opacity="1.000000" stroke="none" 
	d="
M158.098053,97.687500 
	C157.804398,89.890579 157.804398,82.007866 157.804398,74.125160 
	C158.650726,74.130562 159.497055,74.135971 160.343384,74.141373 
	C160.343384,78.796303 160.343384,83.451225 160.528412,88.442986 
	C160.727631,91.179428 160.741821,93.579041 160.716965,96.413071 
	C159.915848,97.098907 159.153763,97.350319 158.098053,97.687500 
z"/>
<path fill="#8C1870" opacity="1.000000" stroke="none" 
	d="
M150.267792,101.112572 
	C150.521042,97.067108 150.774292,93.021645 151.010345,88.525635 
	C151.153442,87.548790 151.313705,87.022507 151.634491,86.274368 
	C151.867462,92.506241 152.126129,98.966972 151.883606,105.408829 
	C151.821686,107.052963 150.385315,108.819420 149.201935,110.206818 
	C147.383743,112.338432 145.238037,114.190674 142.996368,116.372490 
	C142.761459,116.583527 142.378525,116.314850 142.282593,115.835297 
	C143.397705,113.848114 144.388763,112.063972 145.864944,110.889610 
	C149.085037,108.327866 150.540817,105.156067 150.267792,101.112572 
z"/>
<path fill="#B56F36" opacity="1.000000" stroke="none" 
	d="
M165.992111,105.375473 
	C165.827103,108.321098 165.663513,110.815926 165.307556,113.653671 
	C165.105667,102.823097 165.096146,91.649612 165.421692,80.219284 
	C165.835678,88.283180 165.914597,96.603935 165.992111,105.375473 
z"/>
<path fill="#0AA3D7" opacity="1.000000" stroke="none" 
	d="
M125.957787,85.599152 
	C125.180870,84.466469 124.411011,82.988159 123.793503,81.251923 
	C124.618851,82.413841 125.291855,83.833679 125.957787,85.599152 
z"/>
<path fill="#8C1870" opacity="1.000000" stroke="none" 
	d="
M136.904297,83.561729 
	C136.096313,85.130638 135.306625,86.351418 134.289337,87.784760 
	C134.857574,85.841270 135.653397,83.685211 136.712143,81.328201 
	C136.957581,81.822693 136.940094,82.518150 136.904297,83.561729 
z"/>
<path fill="#B56F36" opacity="1.000000" stroke="none" 
	d="
M158.709473,121.988441 
	C159.003799,122.415062 158.976181,122.868492 158.973755,123.661476 
	C158.998962,124.001022 159.000000,124.000000 158.626526,123.943863 
	C157.498352,123.921883 156.743637,123.956047 155.988937,123.990219 
	C155.988937,123.990219 155.767303,123.732529 155.665375,123.596039 
	C156.504791,122.978119 157.446152,122.496689 158.709473,121.988441 
z"/>
<path fill="#7FC032" opacity="1.000000" stroke="none" 
	d="
M104.784943,94.628632 
	C104.563904,94.144707 104.446663,93.296005 104.502441,92.233322 
	C104.746559,92.767509 104.817642,93.515686 104.784943,94.628632 
z"/>
<path fill="#7FC032" opacity="1.000000" stroke="none" 
	d="
M104.724274,102.663803 
	C104.523048,102.439629 104.436890,101.908012 104.510925,101.224792 
	C104.727188,101.500923 104.783264,101.928635 104.724274,102.663803 
z"/>
<path fill="#B56F36" opacity="1.000000" stroke="none" 
	d="
M161.857040,120.868607 
	C161.946594,120.994881 161.638336,121.252556 161.638336,121.252556 
	C161.638336,121.252556 161.228821,121.246643 161.131805,121.145767 
	C161.185440,120.700798 161.429672,120.599945 161.857040,120.868607 
z"/>
<path fill="#8C1870" opacity="1.000000" stroke="none" 
	d="
M133.859711,88.172272 
	C134.013412,88.324600 133.930969,88.536575 133.642105,88.827011 
	C133.412720,88.665054 133.475342,88.440536 133.859711,88.172272 
z"/>
<path fill="#7FC032" opacity="1.000000" stroke="none" 
	d="
M104.762527,79.729935 
	C104.402054,79.776627 104.328049,79.535225 104.574188,79.143539 
	C104.688354,79.058144 104.843002,79.506737 104.762527,79.729935 
z"/>
<path fill="#BF107B" opacity="1.000000" stroke="none" 
	d="
M149.888077,101.059563 
	C150.540817,105.156067 149.085037,108.327866 145.864944,110.889610 
	C144.388763,112.063972 143.397705,113.848114 142.101456,115.687332 
	C135.424896,113.777390 135.889343,107.351868 134.085617,102.350090 
	C133.501022,100.728996 133.953125,98.734047 133.935165,96.466476 
	C139.128983,97.684090 144.318680,99.345322 149.888077,101.059563 
z"/>
<path fill="#F67D18" opacity="1.000000" stroke="none" 
	d="
M156.030411,124.316490 
	C156.743637,123.956047 157.498352,123.921883 158.627136,123.943314 
	C158.024780,124.213531 157.048325,124.428146 156.030411,124.316490 
z"/>
<path fill="#F67D18" opacity="1.000000" stroke="none" 
	d="
M153.539337,126.478165 
	C153.563171,126.521217 153.515503,126.435112 153.539337,126.478165 
z"/>
</svg>